# xmcd
#
# Track frame offsets: 
#        150
#        26621
#        38717
#        58236
#        74063
#        94233
#        114669
#        131211
#        146540
#        161631
#
# Disc length: 2399 seconds
#
# Revision: 0
# Processed by: cddbd v1.5.2PL0 Copyright (c) Steve Scherf et al.
# Submitted via: ExactAudioCopy v0.99pb3
#
DISCID=98095d0a
DTITLE=Jerome Washington Express - Live at the San Luis Obispo Vet's H
DTITLE=all
DYEAR=2008
DGENRE=Blues
TTITLE0=Baby Left This Morning
TTITLE1=Long, Tall and Fine
TTITLE2=Black Man's Shoes
TTITLE3=Traveler's Song
TTITLE4=River Song
TTITLE5=Lady Chiva
TTITLE6=Take My Blues Away
TTITLE7=That's Why I Love Her
TTITLE8=All I Need
TTITLE9=Layin' On The Sidewalk
EXTD=
EXTT0=
EXTT1=
EXTT2=
EXTT3=
EXTT4=
EXTT5=
EXTT6=
EXTT7=
EXTT8=
EXTT9=
PLAYORDER=
